# xmcd
#
# Track frame offsets:
#  150
#  12546
#  24446
#  36385
#  46830
#  57128
#  68078
#  81373
#  92910
#  104510
#  113772
#  125672
#  137878
#  148881
#  162368
#  172891
#  185106
#  194909
#  205389
#  216615
#  227605
#  238269
#  250029
#  262306
#  272352
#  283882
#  296020
#  306511
#  317972
#  329028
#  340349
#
# Disc length: 4677 seconds
#
# Revision: 0
# Processed by: cddbd v1.5.2PL0 Copyright (c) Steve Scherf et al.
# Submitted via: AltoMP3_Maker 3.0
#
DISCID=0312431f
DTITLE=Various Artist - MGM Hillbilly, Vol. 5
DYEAR=1900
DGENRE=
TTITLE0=Bob Gallion - Out of a Honky Tonk
TTITLE1=Paul Davis - I Must Turn My Face to the Wall
TTITLE2=George McCormick - I Guess You Don't Care
TTITLE3=Jesse Rogers - I Never Knew I Needed You
TTITLE4=Jimmie Williams - These Blues over You
TTITLE5=Marvin Rainwater - I Feel Like Leaving Town
TTITLE6=Red Sovine - A Quarter's Worth of Heartaches
TTITLE7=Fred Wamble - Since My True Love Said Goodbye
TTITLE8=Charlie Carson - The Ache in My Heart
TTITLE9=Vic Claiborne - No Letter Today
TTITLE10=Jimmy Swan - The Way That You're Living
TTITLE11=Al Britt - Blue Water
TTITLE12=Mary Ann Johnson - Blue Teardrops
TTITLE13=Joe Cannonball Lewis - Only in Dreams
TTITLE14=Tom Anderson - My Heart Couldn't See
TTITLE15=Bud Hobbs - Last Dance Tonight
TTITLE16=Andrews Bros - Sundown
TTITLE17=Billy Jack Wills - Four Beers and Forty Tears
TTITLE18=Ted West - An Angel's Face (& a Devil's Heart)
TTITLE19=Bob Jennings - I'd Be the Last to Know
TTITLE20=bud Deckelman - I'd Only Be Acting a Fool
TTITLE21=Jimmie Williams - Throwing My Life Away
TTITLE22=Dave Denny - Cry Fool Cry
TTITLE23=Jesse Rogers - You're Sorry for Yourself
TTITLE24=Jimmy Swan - Why Did You Change Your Mind
TTITLE25=Mary Ann Johnson - Lend Me Your Handkerchief
TTITLE26=Bob Gallion - Your Wild Life's Gonna Get You Down
TTITLE27=Paul Davis - What a Fool I've Been
TTITLE28=Rusty Gabbard - It Hurts Too Much to Cry
TTITLE29=Skeets Yaney - If It Was a Teardrop
TTITLE30=Bud Deckelman - I Love You Still
EXTD=
EXTT0=
EXTT1=
EXTT2=
EXTT3=
EXTT4=
EXTT5=
EXTT6=
EXTT7=
EXTT8=
EXTT9=
EXTT10=
EXTT11=
EXTT12=
EXTT13=
EXTT14=
EXTT15=
EXTT16=
EXTT17=
EXTT18=
EXTT19=
EXTT20=
EXTT21=
EXTT22=
EXTT23=
EXTT24=
EXTT25=
EXTT26=
EXTT27=
EXTT28=
EXTT29=
EXTT30=
PLAYORDER=
